<svg width="24" height="24" viewBox="0 0 24 24" fill="none" xmlns="http://www.w3.org/2000/svg" role="img" aria-label="App Store">
  <!-- App Store Apple Logo -->
  <path d="M17.05 20.28C16.05 21.23 15.09 21.87 13.9 21.9C12.73 21.93 12.3 21.1 10.9 21.1C9.5 21.1 9.05 21.93 7.83 22C6.58 22.05 5.62 20.68 4.8 19.5C3.25 17.1 2.05 12.55 3.7 9.5C4.5 8.05 6.05 7.1 7.7 7.07C8.95 7.05 10.2 7.9 10.95 7.9C11.7 7.9 13.25 6.75 14.75 6.9C15.35 6.93 17.05 7.15 18.15 8.85C18.05 8.9 16.05 10.15 16.08 12.6C16.12 15.5 18.6 16.5 18.65 16.52C18.6 16.6 18.25 17.9 17.05 20.28ZM12.85 3.5C13.55 2.7 14.7 2.05 15.7 2C15.8 3.15 15.35 4.3 14.7 5.1C14.05 5.9 12.95 6.55 11.85 6.45C11.7 5.35 12.2 4.2 12.85 3.5Z" fill="currentColor"/>
</svg>
